<?xml version="1.0" encoding="utf-8"?>
<!-- Generator: Adobe Illustrator 12.0.0, SVG Export Plug-In . SVG Version: 6.00 Build 51448)  -->
<!DOCTYPE svg PUBLIC "-//W3C//DTD SVG 1.1//EN" "http://www.w3.org/Graphics/SVG/1.1/DTD/svg11.dtd" [
	<!ENTITY ns_svg "http://www.w3.org/2000/svg">
	<!ENTITY ns_xlink "http://www.w3.org/1999/xlink">
]>
<svg  version="1.1"
	 id="Layer_1" color-rendering="auto" color-interpolation="auto" shape-rendering="auto" image-rendering="auto" text-rendering="auto"
	 xmlns="&ns_svg;" xmlns:xlink="&ns_xlink;" width="595.275" height="841.89" viewBox="0 0 595.275 841.89"
	 overflow="visible" enable-background="new 0 0 595.275 841.89" xml:space="preserve">
<g>
	<g>
		<path d="M283.959,272.074c-14.063,25.406-33.656,44.813-58.781,58.219c-24,12.844-51,19.266-81,19.266
			c-30.094,0-57.094-6.422-81-19.266c-25.125-13.406-44.813-32.813-59.063-58.219c14.344-25.5,33.984-44.953,58.922-58.359
			c23.906-12.844,50.953-19.266,81.141-19.266c30.094,0,57.094,6.422,81,19.266C250.303,227.121,269.897,246.574,283.959,272.074z
			 M257.381,272.074c-18.375-32.25-47.344-51.656-86.906-58.219c11.813,5.063,21.234,12.82,28.266,23.273
			s10.547,22.102,10.547,34.945c0,12.563-3.469,24.094-10.406,34.594s-16.172,18.328-27.703,23.484
			C210.459,323.496,239.194,304.136,257.381,272.074z M195.788,272.074c0-14.156-5.086-26.133-15.258-35.93
			s-22.336-14.695-36.492-14.695c-7.406,0-14.531,1.547-21.375,4.641l-5.344-12.234c-39.469,6.75-68.344,26.156-86.625,58.219
			c18.188,31.969,46.875,51.328,86.063,58.078c-11.531-5.156-20.742-12.984-27.633-23.484s-10.336-22.031-10.336-34.594
			c0-7.688,1.359-15.188,4.078-22.5l13.078,4.078c-2.438,6.094-3.656,12.234-3.656,18.422c0,14.156,5.063,26.133,15.188,35.93
			s22.313,14.695,36.563,14.695s26.438-4.898,36.563-14.695S195.788,286.23,195.788,272.074z M183.131,272.074
			c0,10.688-3.844,19.758-11.531,27.211s-16.875,11.18-27.563,11.18c-10.781,0-19.992-3.727-27.633-11.18
			s-11.461-16.523-11.461-27.211c0-4.781,0.797-9.281,2.391-13.5l39.938,18.141l-18.703-39.656
			c5.063-2.25,10.219-3.375,15.469-3.375c10.688,0,19.875,3.727,27.563,11.18S183.131,261.386,183.131,272.074z"/>
	</g>
</g>
</svg>
